<mxfile host="app.diagrams.net" modified="2024-04-03T17:06:58.050Z" agent="Mozilla/5.0 (Windows NT 10.0; Win64; x64) AppleWebKit/537.36 (KHTML, like Gecko) Chrome/123.0.0.0 Safari/537.36" version="24.2.2" etag="giPHe88szu8QDieKY7OO" type="github">
  <diagram name="PÃ¡gina-1" id="jVb0wTus-U6g0hQx-hO-">
    <mxGraphModel>
      <root>
        <mxCell id="0" />
        <mxCell id="1" parent="0" />
      </root>
    </mxGraphModel>
  </diagram>
</mxfile>
